<mxfile host="app.diagrams.net" modified="2023-11-21T20:30:19.467Z" agent="Mozilla/5.0 (X11; Linux x86_64; rv:121.0) Gecko/20100101 Firefox/121.0" etag="r_EaSQAN0-hGYqX-us6a" version="22.1.3" type="device">
  <diagram name="Page-1" id="39fPUp5zSJT6BrBcXp-8">
    <mxGraphModel dx="989" dy="543" grid="1" gridSize="10" guides="1" tooltips="1" connect="1" arrows="1" fold="1" page="1" pageScale="1" pageWidth="850" pageHeight="1100" math="0" shadow="0">
      <root>
        <mxCell id="0" />
        <mxCell id="1" parent="0" />
        <mxCell id="G3nq_EYNlLwuAzGxM-8_-38" value="Usuario" style="rounded=0;whiteSpace=wrap;html=1;" vertex="1" parent="1">
          <mxGeometry x="190" y="290" width="80" height="40" as="geometry" />
        </mxCell>
        <mxCell id="G3nq_EYNlLwuAzGxM-8_-39" value="tiene" style="rhombus;whiteSpace=wrap;html=1;" vertex="1" parent="1">
          <mxGeometry x="350" y="280" width="60" height="60" as="geometry" />
        </mxCell>
        <mxCell id="G3nq_EYNlLwuAzGxM-8_-40" value="Trabajo" style="rounded=0;whiteSpace=wrap;html=1;" vertex="1" parent="1">
          <mxGeometry x="510" y="290" width="80" height="40" as="geometry" />
        </mxCell>
        <mxCell id="G3nq_EYNlLwuAzGxM-8_-41" value="" style="endArrow=none;html=1;rounded=0;entryX=0;entryY=0.5;entryDx=0;entryDy=0;exitX=1;exitY=0.5;exitDx=0;exitDy=0;" edge="1" parent="1" source="G3nq_EYNlLwuAzGxM-8_-39" target="G3nq_EYNlLwuAzGxM-8_-40">
          <mxGeometry width="50" height="50" relative="1" as="geometry">
            <mxPoint x="430" y="350" as="sourcePoint" />
            <mxPoint x="480" y="300" as="targetPoint" />
          </mxGeometry>
        </mxCell>
        <mxCell id="G3nq_EYNlLwuAzGxM-8_-44" value="0..N" style="edgeLabel;html=1;align=center;verticalAlign=middle;resizable=0;points=[];" vertex="1" connectable="0" parent="G3nq_EYNlLwuAzGxM-8_-41">
          <mxGeometry x="0.58" y="1" relative="1" as="geometry">
            <mxPoint y="-9" as="offset" />
          </mxGeometry>
        </mxCell>
        <mxCell id="G3nq_EYNlLwuAzGxM-8_-42" value="" style="endArrow=none;html=1;rounded=0;entryX=0;entryY=0.5;entryDx=0;entryDy=0;exitX=1;exitY=0.5;exitDx=0;exitDy=0;" edge="1" parent="1" source="G3nq_EYNlLwuAzGxM-8_-38" target="G3nq_EYNlLwuAzGxM-8_-39">
          <mxGeometry width="50" height="50" relative="1" as="geometry">
            <mxPoint x="230" y="340" as="sourcePoint" />
            <mxPoint x="280" y="290" as="targetPoint" />
          </mxGeometry>
        </mxCell>
        <mxCell id="G3nq_EYNlLwuAzGxM-8_-43" value="1" style="edgeLabel;html=1;align=center;verticalAlign=middle;resizable=0;points=[];" vertex="1" connectable="0" parent="G3nq_EYNlLwuAzGxM-8_-42">
          <mxGeometry x="0.05" y="2" relative="1" as="geometry">
            <mxPoint x="-32" y="-8" as="offset" />
          </mxGeometry>
        </mxCell>
        <mxCell id="G3nq_EYNlLwuAzGxM-8_-45" value="&lt;u&gt;id&lt;/u&gt;" style="ellipse;whiteSpace=wrap;html=1;" vertex="1" parent="1">
          <mxGeometry x="530" y="190" width="70" height="40" as="geometry" />
        </mxCell>
        <mxCell id="G3nq_EYNlLwuAzGxM-8_-46" value="&lt;u&gt;id&lt;/u&gt;" style="ellipse;whiteSpace=wrap;html=1;" vertex="1" parent="1">
          <mxGeometry x="140" y="200" width="60" height="30" as="geometry" />
        </mxCell>
        <mxCell id="G3nq_EYNlLwuAzGxM-8_-47" value="calidad" style="ellipse;whiteSpace=wrap;html=1;" vertex="1" parent="1">
          <mxGeometry x="610" y="210" width="80" height="40" as="geometry" />
        </mxCell>
        <mxCell id="G3nq_EYNlLwuAzGxM-8_-48" value="cantidad" style="ellipse;whiteSpace=wrap;html=1;" vertex="1" parent="1">
          <mxGeometry x="660" y="260" width="80" height="40" as="geometry" />
        </mxCell>
        <mxCell id="G3nq_EYNlLwuAzGxM-8_-49" value="estado" style="ellipse;whiteSpace=wrap;html=1;" vertex="1" parent="1">
          <mxGeometry x="660" y="320" width="80" height="40" as="geometry" />
        </mxCell>
        <mxCell id="G3nq_EYNlLwuAzGxM-8_-50" value="fecha inicio" style="ellipse;whiteSpace=wrap;html=1;" vertex="1" parent="1">
          <mxGeometry x="610" y="370" width="80" height="40" as="geometry" />
        </mxCell>
        <mxCell id="G3nq_EYNlLwuAzGxM-8_-51" value="fecha fin" style="ellipse;whiteSpace=wrap;html=1;" vertex="1" parent="1">
          <mxGeometry x="550" y="410" width="80" height="40" as="geometry" />
        </mxCell>
        <mxCell id="G3nq_EYNlLwuAzGxM-8_-52" value="fecha de entrega" style="ellipse;whiteSpace=wrap;html=1;" vertex="1" parent="1">
          <mxGeometry x="450" y="410" width="80" height="40" as="geometry" />
        </mxCell>
        <mxCell id="G3nq_EYNlLwuAzGxM-8_-53" value="nombre de usuario" style="ellipse;whiteSpace=wrap;html=1;" vertex="1" parent="1">
          <mxGeometry x="60" y="240" width="80" height="40" as="geometry" />
        </mxCell>
        <mxCell id="G3nq_EYNlLwuAzGxM-8_-54" value="contraseÃ±a" style="ellipse;whiteSpace=wrap;html=1;" vertex="1" parent="1">
          <mxGeometry x="50" y="300" width="80" height="40" as="geometry" />
        </mxCell>
        <mxCell id="G3nq_EYNlLwuAzGxM-8_-55" value="administrador" style="ellipse;whiteSpace=wrap;html=1;" vertex="1" parent="1">
          <mxGeometry x="80" y="360" width="80" height="40" as="geometry" />
        </mxCell>
        <mxCell id="G3nq_EYNlLwuAzGxM-8_-56" value="activo" style="ellipse;whiteSpace=wrap;html=1;" vertex="1" parent="1">
          <mxGeometry x="160" y="400" width="80" height="40" as="geometry" />
        </mxCell>
        <mxCell id="G3nq_EYNlLwuAzGxM-8_-57" value="" style="endArrow=none;html=1;rounded=0;entryX=0.717;entryY=1;entryDx=0;entryDy=0;entryPerimeter=0;exitX=0.25;exitY=0;exitDx=0;exitDy=0;" edge="1" parent="1" source="G3nq_EYNlLwuAzGxM-8_-38" target="G3nq_EYNlLwuAzGxM-8_-46">
          <mxGeometry width="50" height="50" relative="1" as="geometry">
            <mxPoint x="430" y="320" as="sourcePoint" />
            <mxPoint x="480" y="270" as="targetPoint" />
          </mxGeometry>
        </mxCell>
        <mxCell id="G3nq_EYNlLwuAzGxM-8_-58" value="" style="endArrow=none;html=1;rounded=0;entryX=1;entryY=1;entryDx=0;entryDy=0;exitX=0;exitY=0;exitDx=0;exitDy=0;" edge="1" parent="1" source="G3nq_EYNlLwuAzGxM-8_-38" target="G3nq_EYNlLwuAzGxM-8_-53">
          <mxGeometry width="50" height="50" relative="1" as="geometry">
            <mxPoint x="233" y="302" as="sourcePoint" />
            <mxPoint x="193" y="240" as="targetPoint" />
          </mxGeometry>
        </mxCell>
        <mxCell id="G3nq_EYNlLwuAzGxM-8_-59" value="" style="endArrow=none;html=1;rounded=0;entryX=1;entryY=0.5;entryDx=0;entryDy=0;exitX=0;exitY=0.75;exitDx=0;exitDy=0;" edge="1" parent="1" source="G3nq_EYNlLwuAzGxM-8_-38" target="G3nq_EYNlLwuAzGxM-8_-54">
          <mxGeometry width="50" height="50" relative="1" as="geometry">
            <mxPoint x="243" y="312" as="sourcePoint" />
            <mxPoint x="203" y="250" as="targetPoint" />
          </mxGeometry>
        </mxCell>
        <mxCell id="G3nq_EYNlLwuAzGxM-8_-62" value="" style="endArrow=none;html=1;rounded=0;entryX=0;entryY=1;entryDx=0;entryDy=0;exitX=0.963;exitY=0.279;exitDx=0;exitDy=0;exitPerimeter=0;" edge="1" parent="1" source="G3nq_EYNlLwuAzGxM-8_-55" target="G3nq_EYNlLwuAzGxM-8_-38">
          <mxGeometry width="50" height="50" relative="1" as="geometry">
            <mxPoint x="150" y="370" as="sourcePoint" />
            <mxPoint x="240" y="340" as="targetPoint" />
          </mxGeometry>
        </mxCell>
        <mxCell id="G3nq_EYNlLwuAzGxM-8_-63" value="" style="endArrow=none;html=1;rounded=0;entryX=0.5;entryY=1;entryDx=0;entryDy=0;" edge="1" parent="1" target="G3nq_EYNlLwuAzGxM-8_-38">
          <mxGeometry width="50" height="50" relative="1" as="geometry">
            <mxPoint x="210" y="400" as="sourcePoint" />
            <mxPoint x="480" y="270" as="targetPoint" />
          </mxGeometry>
        </mxCell>
        <mxCell id="G3nq_EYNlLwuAzGxM-8_-67" value="" style="endArrow=none;html=1;rounded=0;entryX=0.202;entryY=0.986;entryDx=0;entryDy=0;exitX=0.588;exitY=-0.025;exitDx=0;exitDy=0;exitPerimeter=0;entryPerimeter=0;" edge="1" parent="1" source="G3nq_EYNlLwuAzGxM-8_-52" target="G3nq_EYNlLwuAzGxM-8_-40">
          <mxGeometry width="50" height="50" relative="1" as="geometry">
            <mxPoint x="430" y="320" as="sourcePoint" />
            <mxPoint x="480" y="270" as="targetPoint" />
          </mxGeometry>
        </mxCell>
        <mxCell id="G3nq_EYNlLwuAzGxM-8_-68" value="" style="endArrow=none;html=1;rounded=0;entryX=0.5;entryY=1;entryDx=0;entryDy=0;" edge="1" parent="1" target="G3nq_EYNlLwuAzGxM-8_-40">
          <mxGeometry width="50" height="50" relative="1" as="geometry">
            <mxPoint x="580" y="410" as="sourcePoint" />
            <mxPoint x="534" y="343" as="targetPoint" />
          </mxGeometry>
        </mxCell>
        <mxCell id="G3nq_EYNlLwuAzGxM-8_-69" value="" style="endArrow=none;html=1;rounded=0;entryX=0.838;entryY=1;entryDx=0;entryDy=0;exitX=0.08;exitY=0.243;exitDx=0;exitDy=0;exitPerimeter=0;entryPerimeter=0;" edge="1" parent="1" source="G3nq_EYNlLwuAzGxM-8_-50" target="G3nq_EYNlLwuAzGxM-8_-40">
          <mxGeometry width="50" height="50" relative="1" as="geometry">
            <mxPoint x="579" y="421" as="sourcePoint" />
            <mxPoint x="560" y="340" as="targetPoint" />
          </mxGeometry>
        </mxCell>
        <mxCell id="G3nq_EYNlLwuAzGxM-8_-70" value="" style="endArrow=none;html=1;rounded=0;entryX=1;entryY=0.75;entryDx=0;entryDy=0;exitX=0;exitY=0.5;exitDx=0;exitDy=0;" edge="1" parent="1" source="G3nq_EYNlLwuAzGxM-8_-49" target="G3nq_EYNlLwuAzGxM-8_-40">
          <mxGeometry width="50" height="50" relative="1" as="geometry">
            <mxPoint x="625" y="385" as="sourcePoint" />
            <mxPoint x="587" y="340" as="targetPoint" />
          </mxGeometry>
        </mxCell>
        <mxCell id="G3nq_EYNlLwuAzGxM-8_-71" value="" style="endArrow=none;html=1;rounded=0;entryX=1;entryY=0.25;entryDx=0;entryDy=0;exitX=0.038;exitY=0.675;exitDx=0;exitDy=0;exitPerimeter=0;" edge="1" parent="1" source="G3nq_EYNlLwuAzGxM-8_-48" target="G3nq_EYNlLwuAzGxM-8_-40">
          <mxGeometry width="50" height="50" relative="1" as="geometry">
            <mxPoint x="670" y="350" as="sourcePoint" />
            <mxPoint x="600" y="330" as="targetPoint" />
          </mxGeometry>
        </mxCell>
        <mxCell id="G3nq_EYNlLwuAzGxM-8_-72" value="" style="endArrow=none;html=1;rounded=0;entryX=0.9;entryY=0;entryDx=0;entryDy=0;exitX=0;exitY=1;exitDx=0;exitDy=0;entryPerimeter=0;" edge="1" parent="1" source="G3nq_EYNlLwuAzGxM-8_-47" target="G3nq_EYNlLwuAzGxM-8_-40">
          <mxGeometry width="50" height="50" relative="1" as="geometry">
            <mxPoint x="673" y="297" as="sourcePoint" />
            <mxPoint x="600" y="310" as="targetPoint" />
          </mxGeometry>
        </mxCell>
        <mxCell id="G3nq_EYNlLwuAzGxM-8_-73" value="" style="endArrow=none;html=1;rounded=0;entryX=0.5;entryY=0;entryDx=0;entryDy=0;exitX=0.5;exitY=1;exitDx=0;exitDy=0;" edge="1" parent="1" source="G3nq_EYNlLwuAzGxM-8_-45" target="G3nq_EYNlLwuAzGxM-8_-40">
          <mxGeometry width="50" height="50" relative="1" as="geometry">
            <mxPoint x="632" y="254" as="sourcePoint" />
            <mxPoint x="592" y="300" as="targetPoint" />
          </mxGeometry>
        </mxCell>
        <mxCell id="G3nq_EYNlLwuAzGxM-8_-76" value="" style="rounded=0;whiteSpace=wrap;html=1;fillColor=none;strokeColor=none;" vertex="1" parent="1">
          <mxGeometry x="40" y="170" width="710" height="310" as="geometry" />
        </mxCell>
      </root>
    </mxGraphModel>
  </diagram>
</mxfile>
